<svg width="480" height="400" viewBox="0 0 480 400" fill="none" xmlns="http://www.w3.org/2000/svg">
  <defs>
    <linearGradient id="bellGrad" x1="0" y1="0" x2="0" y2="1">
      <stop offset="0%" stop-color="#9b8fb5"/>
      <stop offset="100%" stop-color="#7d7098"/>
    </linearGradient>
    <linearGradient id="envGrad" x1="0" y1="0" x2="0" y2="1">
      <stop offset="0%" stop-color="#ffffff"/>
      <stop offset="100%" stop-color="#f7ede4"/>
    </linearGradient>
  </defs>

  <ellipse cx="240" cy="345" rx="175" ry="14" fill="#000000" opacity="0.05"/>

  <rect x="115" y="205" width="200" height="140" rx="14" fill="url(#envGrad)" stroke="#e0c9b8" stroke-width="3"/>
  <path d="M115 215 L215 285 L315 215" stroke="#e0a5a5" stroke-width="3" fill="none" stroke-linecap="round" stroke-linejoin="round"/>

  <g transform="translate(180, 45)">
    <path d="M60 0 C 30 0 12 22 12 55 L 12 95 C 12 105 6 115 -4 122 L 124 122 C 114 115 108 105 108 95 L 108 55 C 108 22 90 0 60 0 Z"
          fill="url(#bellGrad)"/>
    <path d="M60 -8 a 12 12 0 0 1 12 12 l -24 0 a 12 12 0 0 1 12 -12 Z" fill="#5a4f78"/>
    <path d="M42 128 a 18 20 0 0 0 36 0 Z" fill="#5a4f78"/>
  </g>

  <circle cx="295" cy="60" r="22" fill="#e08a8a"/>
  <text x="295" y="68" font-family="Arial, sans-serif" font-size="24" font-weight="bold" fill="#ffffff" text-anchor="middle">!</text>

  <path d="M120 40 q10 8 0 16 M110 30 q18 14 0 32" stroke="#c4b7d4" stroke-width="4" fill="none" stroke-linecap="round" opacity="0.7"/>
  <path d="M360 40 q-10 8 0 16 M370 30 q-18 14 0 32" stroke="#c4b7d4" stroke-width="4" fill="none" stroke-linecap="round" opacity="0.7"/>
</svg>
