<svg width="400" height="400" viewBox="0 0 400 400" fill="none" xmlns="http://www.w3.org/2000/svg">
  <defs>
    <linearGradient id="exBg" x1="0" y1="0" x2="1" y2="1">
      <stop offset="0%" stop-color="#e08a8a"/>
      <stop offset="100%" stop-color="#d47070"/>
    </linearGradient>
    <linearGradient id="skin" x1="0" y1="0" x2="1" y2="1">
      <stop offset="0%" stop-color="#f7d3c1"/>
      <stop offset="100%" stop-color="#f0c0a5"/>
    </linearGradient>
  </defs>

  <circle cx="200" cy="200" r="180" fill="url(#exBg)"/>

  <path d="M60 320 Q200 280 340 320 L340 400 L60 400 Z" fill="#ffffff" opacity="0.12"/>

  <path d="M120 270 q80 -30 160 0" stroke="#ffffff" stroke-width="6" fill="none" opacity="0.25" stroke-linecap="round"/>
  <path d="M100 240 l24 -10 M280 240 l24 -10" stroke="#ffffff" stroke-width="6" stroke-linecap="round" opacity="0.4"/>

  <ellipse cx="200" cy="330" rx="55" ry="12" fill="#000000" opacity="0.12"/>

  <g>
    <rect x="150" y="185" width="100" height="110" rx="30" fill="#f5b041"/>

    <circle cx="200" cy="150" r="38" fill="url(#skin)"/>
    <path d="M164 140 q36 -30 72 0 q0 -34 -36 -34 q-36 0 -36 34 Z" fill="#5a3a3a"/>

    <path d="M185 155 q15 8 30 0" stroke="#5a3a3a" stroke-width="3" fill="none" stroke-linecap="round"/>
    <circle cx="185" cy="145" r="3" fill="#5a3a3a"/>
    <circle cx="215" cy="145" r="3" fill="#5a3a3a"/>

    <path d="M150 210 l-38 -38" stroke="url(#skin)" stroke-width="20" stroke-linecap="round"/>
    <path d="M250 210 l38 -38" stroke="url(#skin)" stroke-width="20" stroke-linecap="round"/>

    <rect x="90" y="150" width="18" height="42" rx="6" fill="#7d7098"/>
    <rect x="82" y="142" width="12" height="18" rx="4" fill="#5a4f78"/>
    <rect x="82" y="182" width="12" height="18" rx="4" fill="#5a4f78"/>

    <rect x="292" y="150" width="18" height="42" rx="6" fill="#7d7098"/>
    <rect x="284" y="142" width="12" height="18" rx="4" fill="#5a4f78"/>
    <rect x="284" y="182" width="12" height="18" rx="4" fill="#5a4f78"/>

    <path d="M170 295 l-14 45" stroke="url(#skin)" stroke-width="22" stroke-linecap="round"/>
    <path d="M230 295 l14 45" stroke="url(#skin)" stroke-width="22" stroke-linecap="round"/>
    <ellipse cx="150" cy="345" rx="16" ry="9" fill="#4a4560"/>
    <ellipse cx="250" cy="345" rx="16" ry="9" fill="#4a4560"/>
  </g>

  <path d="M60 100 l10 10 M330 90 l-10 10 M70 320 l-14 6" stroke="#ffffff" stroke-width="5" stroke-linecap="round" opacity="0.5"/>
</svg>
