<svg width="480" height="400" viewBox="0 0 480 400" fill="none" xmlns="http://www.w3.org/2000/svg">
  <defs>
    <linearGradient id="shieldGrad" x1="0" y1="0" x2="0" y2="1">
      <stop offset="0%" stop-color="#e8a3a3"/>
      <stop offset="100%" stop-color="#d47070"/>
    </linearGradient>
  </defs>

  <ellipse cx="240" cy="345" rx="175" ry="14" fill="#000000" opacity="0.05"/>

  <path d="M240 55 L 355 90 L 355 190 C 355 265 305 315 240 340 C 175 315 125 265 125 190 L 125 90 Z"
        fill="url(#shieldGrad)" stroke="#c25f5f" stroke-width="3"/>

  <path d="M240 75 L 335 105 L 335 190 C 335 253 293 296 240 318 C 187 296 145 253 145 190 L 145 105 Z"
        fill="none" stroke="#ffffff" stroke-width="2.5" opacity="0.55"/>

  <path d="M175 195 L 220 240 L 305 145"
        stroke="#ffffff" stroke-width="14" fill="none" stroke-linecap="round" stroke-linejoin="round"/>

  <circle cx="105" cy="120" r="6" fill="#f5b041"/>
  <circle cx="380" cy="150" r="5" fill="#8da37c"/>
  <path d="M90 220 l4 10 l10 4 l-10 4 l-4 10 l-4 -10 l-10 -4 l10 -4 z" fill="#c4b7d4" opacity="0.8"/>
  <path d="M385 240 l3 8 l8 3 l-8 3 l-3 8 l-3 -8 l-8 -3 l8 -3 z" fill="#aed6f1" opacity="0.8"/>
</svg>
