<svg width="400" height="400" viewBox="0 0 400 400" fill="none" xmlns="http://www.w3.org/2000/svg">
  <defs>
    <linearGradient id="bgGrad" x1="0" y1="0" x2="1" y2="1">
      <stop offset="0%" stop-color="#d4e8f7"/>
      <stop offset="100%" stop-color="#aed6f1"/>
    </linearGradient>
    <linearGradient id="dropGrad" x1="0" y1="0" x2="0" y2="1">
      <stop offset="0%" stop-color="#7eb8d8"/>
      <stop offset="100%" stop-color="#4a90b8"/>
    </linearGradient>
    <linearGradient id="dropShine" x1="0" y1="0" x2="1" y2="1">
      <stop offset="0%" stop-color="#ffffff" stop-opacity="0.55"/>
      <stop offset="100%" stop-color="#ffffff" stop-opacity="0"/>
    </linearGradient>
  </defs>

  <circle cx="200" cy="200" r="180" fill="url(#bgGrad)"/>

  <path d="M200 250 c-60 40 -20 100 30 90 c 40 -8 55 -50 30 -85 c -18 -25 -60 -5 -60 -5 z" fill="#8da37c" opacity="0.35"/>

  <circle cx="100" cy="120" r="8" fill="#ffffff" opacity="0.6"/>
  <circle cx="320" cy="160" r="6" fill="#ffffff" opacity="0.5"/>
  <circle cx="290" cy="90" r="5" fill="#ffffff" opacity="0.6"/>

  <path d="M200 90
           C 200 90 130 190 130 250
           C 130 290 162 320 200 320
           C 238 320 270 290 270 250
           C 270 190 200 90 200 90 Z"
        fill="url(#dropGrad)"/>

  <path d="M170 150 C 155 180 145 210 148 235 C 150 250 160 258 160 258"
        stroke="url(#dropShine)" stroke-width="14" stroke-linecap="round" fill="none"/>

  <path d="M140 255 Q 160 245 180 255 T 220 255 T 260 255"
        stroke="#ffffff" stroke-width="4" fill="none" opacity="0.5" stroke-linecap="round"/>
  <path d="M140 270 Q 160 260 180 270 T 220 270 T 260 270"
        stroke="#ffffff" stroke-width="4" fill="none" opacity="0.35" stroke-linecap="round"/>

  <circle cx="145" cy="200" r="7" fill="#ffffff" opacity="0.4"/>
  <circle cx="255" cy="215" r="5" fill="#ffffff" opacity="0.35"/>
</svg>
