<svg width="480" height="400" viewBox="0 0 480 400" fill="none" xmlns="http://www.w3.org/2000/svg">
  <defs>
    <linearGradient id="chartBg" x1="0" y1="0" x2="0" y2="1">
      <stop offset="0%" stop-color="#aed6f1"/>
      <stop offset="100%" stop-color="#8fc0e0"/>
    </linearGradient>
    <linearGradient id="glassGrad" x1="0" y1="0" x2="1" y2="1">
      <stop offset="0%" stop-color="#ffffff" stop-opacity="0.9"/>
      <stop offset="100%" stop-color="#e8f2fa" stop-opacity="0.6"/>
    </linearGradient>
  </defs>

  <ellipse cx="240" cy="345" rx="175" ry="14" fill="#000000" opacity="0.05"/>

  <rect x="70" y="90" width="300" height="220" rx="14" fill="#fdf9f2" stroke="#e0d3c0" stroke-width="2"/>

  <line x1="100" y1="270" x2="100" y2="130" stroke="#e5dccc" stroke-width="1.5"/>
  <line x1="150" y1="270" x2="150" y2="130" stroke="#e5dccc" stroke-width="1.5"/>
  <line x1="200" y1="270" x2="200" y2="130" stroke="#e5dccc" stroke-width="1.5"/>
  <line x1="250" y1="270" x2="250" y2="130" stroke="#e5dccc" stroke-width="1.5"/>
  <line x1="300" y1="270" x2="300" y2="130" stroke="#e5dccc" stroke-width="1.5"/>

  <path d="M95 240 L145 200 L195 225 L245 160 L295 180 L335 130"
        stroke="#e08a8a" stroke-width="4" fill="none" stroke-linecap="round" stroke-linejoin="round"/>

  <circle cx="95" cy="240" r="5" fill="#e08a8a"/>
  <circle cx="145" cy="200" r="5" fill="#e08a8a"/>
  <circle cx="195" cy="225" r="5" fill="#e08a8a"/>
  <circle cx="245" cy="160" r="5" fill="#e08a8a"/>
  <circle cx="295" cy="180" r="5" fill="#e08a8a"/>
  <circle cx="335" cy="130" r="5" fill="#e08a8a"/>

  <g transform="translate(295, 195)">
    <circle cx="75" cy="75" r="70" fill="url(#glassGrad)" stroke="#7d7098" stroke-width="8"/>
    <circle cx="75" cy="75" r="70" fill="none" stroke="#ffffff" stroke-width="3" opacity="0.6"/>
    <line x1="122" y1="122" x2="168" y2="168" stroke="#7d7098" stroke-width="16" stroke-linecap="round"/>
    <line x1="122" y1="122" x2="168" y2="168" stroke="#5a4f78" stroke-width="6" stroke-linecap="round"/>

    <path d="M35 90 L55 65 L75 80 L100 45"
          stroke="#6d8f5e" stroke-width="5" fill="none" stroke-linecap="round" stroke-linejoin="round"/>
  </g>
</svg>
