<svg width="480" height="400" viewBox="0 0 480 400" fill="none" xmlns="http://www.w3.org/2000/svg">
  <defs>
    <linearGradient id="pageLeft" x1="0" y1="0" x2="1" y2="0">
      <stop offset="0%" stop-color="#f7ede4"/>
      <stop offset="100%" stop-color="#fffaf3"/>
    </linearGradient>
    <linearGradient id="pageRight" x1="1" y1="0" x2="0" y2="0">
      <stop offset="0%" stop-color="#f7ede4"/>
      <stop offset="100%" stop-color="#fffaf3"/>
    </linearGradient>
    <linearGradient id="coverGrad" x1="0" y1="0" x2="0" y2="1">
      <stop offset="0%" stop-color="#e08a8a"/>
      <stop offset="100%" stop-color="#c25f5f"/>
    </linearGradient>
  </defs>

  <ellipse cx="240" cy="330" rx="185" ry="18" fill="#000000" opacity="0.06"/>

  <path d="M240 90 C 200 70 120 65 60 80 L 60 300 C 120 285 200 290 240 310 Z"
        fill="url(#pageLeft)" stroke="#e0c9b8" stroke-width="2"/>
  <path d="M240 90 C 280 70 360 65 420 80 L 420 300 C 360 285 280 290 240 310 Z"
        fill="url(#pageRight)" stroke="#e0c9b8" stroke-width="2"/>

  <path d="M240 90 L240 310" stroke="#d9b9a3" stroke-width="2"/>

  <g stroke="#c9a98f" stroke-width="2.5" stroke-linecap="round" opacity="0.65">
    <path d="M85 120 h110" />
    <path d="M85 140 h95" />
    <path d="M85 160 h105" />
    <path d="M85 180 h80" />
    <path d="M85 200 h100" />
    <path d="M85 220 h70" />

    <path d="M285 120 h110" />
    <path d="M290 140 h95" />
    <path d="M285 160 h105" />
    <path d="M295 180 h80" />
    <path d="M285 200 h100" />
    <path d="M295 220 h70" />
  </g>

  <path d="M55 78 C 118 62 200 66 240 88 C 280 66 362 62 425 78 L 425 74 C 362 58 280 54 240 76 C 200 54 118 58 55 74 Z"
        fill="url(#coverGrad)"/>

  <g transform="translate(210, 30)">
    <path d="M20 0 C 8 4 0 16 0 28 C 0 40 8 50 20 54 C 12 46 8 38 8 28 C 8 18 12 8 20 0 Z" fill="#e08a8a"/>
    <path d="M32 8 l2.4 6.8 7.2 0.6 -5.6 4.6 1.8 7 -6.2 -4 -6.2 4 1.8 -7 -5.6 -4.6 7.2 -0.6 Z" fill="#f5b041"/>
  </g>
</svg>
