<svg width="480" height="400" viewBox="0 0 480 400" fill="none" xmlns="http://www.w3.org/2000/svg">
  <defs>
    <linearGradient id="coverGrad2" x1="0" y1="0" x2="1" y2="1">
      <stop offset="0%" stop-color="#e08a8a"/>
      <stop offset="100%" stop-color="#c25f5f"/>
    </linearGradient>
    <linearGradient id="pageGrad" x1="0" y1="0" x2="0" y2="1">
      <stop offset="0%" stop-color="#ffffff"/>
      <stop offset="100%" stop-color="#f7ede4"/>
    </linearGradient>
  </defs>

  <ellipse cx="240" cy="345" rx="175" ry="14" fill="#000000" opacity="0.05"/>

  <rect x="90" y="70" width="230" height="270" rx="14" fill="url(#coverGrad2)"/>
  <rect x="110" y="90" width="190" height="230" rx="8" fill="url(#pageGrad)"/>

  <g stroke="#d9c2a8" stroke-width="3" stroke-linecap="round">
    <line x1="128" y1="120" x2="282" y2="120" />
    <line x1="128" y1="145" x2="260" y2="145" />
    <line x1="128" y1="170" x2="270" y2="170" />
  </g>

  <circle cx="140" cy="205" r="12" fill="#8da37c"/>
  <path d="M134 205 l4 5 l9 -11" stroke="#ffffff" stroke-width="2.5" fill="none" stroke-linecap="round" stroke-linejoin="round"/>
  <line x1="160" y1="205" x2="270" y2="205" stroke="#d9c2a8" stroke-width="3" stroke-linecap="round"/>

  <circle cx="140" cy="235" r="12" fill="#8da37c"/>
  <path d="M134 235 l4 5 l9 -11" stroke="#ffffff" stroke-width="2.5" fill="none" stroke-linecap="round" stroke-linejoin="round"/>
  <line x1="160" y1="235" x2="255" y2="235" stroke="#d9c2a8" stroke-width="3" stroke-linecap="round"/>

  <circle cx="140" cy="265" r="12" fill="none" stroke="#c9b8a0" stroke-width="3"/>
  <line x1="160" y1="265" x2="270" y2="265" stroke="#d9c2a8" stroke-width="3" stroke-linecap="round"/>

  <rect x="90" y="70" width="230" height="18" rx="9" fill="#c25f5f"/>

  <g transform="translate(300, 235) rotate(35)">
    <rect x="0" y="0" width="14" height="130" rx="7" fill="#f5b041"/>
    <path d="M0 0 L14 0 L7 -22 Z" fill="#3d3d3d"/>
    <rect x="0" y="105" width="14" height="20" rx="3" fill="#e8e0d0"/>
  </g>

  <path d="M350 130 l4 10 l10 4 l-10 4 l-4 10 l-4 -10 l-10 -4 l10 -4 z" fill="#aed6f1" opacity="0.8"/>
  <path d="M95 100 l3 8 l8 3 l-8 3 l-3 8 l-3 -8 l-8 -3 l8 -3 z" fill="#c4b7d4" opacity="0.7"/>
</svg>
