<svg xmlns="http://www.w3.org/2000/svg" viewBox="0 0 512 512" fill="none">
  <defs>
    <linearGradient id="bg" x1="64" y1="48" x2="448" y2="464" gradientUnits="userSpaceOnUse">
      <stop stop-color="#e08a8a"/>
      <stop offset="0.45" stop-color="#d47070"/>
      <stop offset="1" stop-color="#c4b7d4"/>
    </linearGradient>
    <linearGradient id="card" x1="156" y1="132" x2="356" y2="380" gradientUnits="userSpaceOnUse">
      <stop stop-color="#fff9f0"/>
      <stop offset="1" stop-color="#ffffff"/>
    </linearGradient>
  </defs>
  <rect width="512" height="512" rx="112" fill="url(#bg)"/>
  <circle cx="108" cy="96" r="28" fill="#f5b041" opacity="0.9"/>
  <circle cx="404" cy="118" r="34" fill="#aed6f1" opacity="0.9"/>
  <circle cx="92" cy="404" r="24" fill="#8da37c" opacity="0.9"/>
  <circle cx="418" cy="392" r="22" fill="#fdebd0" opacity="0.95"/>
  <rect x="132" y="118" width="248" height="276" rx="44" fill="rgba(255,255,255,0.96)" stroke="rgba(255,255,255,0.85)" stroke-width="6"/>
  <rect x="168" y="164" width="176" height="176" rx="28" fill="url(#card)" stroke="#f0e0d6" stroke-width="4"/>
  <rect x="196" y="206" width="120" height="14" rx="7" fill="#e08a8a"/>
  <rect x="196" y="236" width="96" height="12" rx="6" fill="#c4b7d4"/>
  <rect x="196" y="262" width="108" height="12" rx="6" fill="#aed6f1"/>
  <rect x="196" y="288" width="84" height="12" rx="6" fill="#8da37c"/>
  <circle cx="256" cy="360" r="34" fill="#e08a8a"/>
  <circle cx="256" cy="360" r="34" fill="url(#bg)" opacity="0.35"/>
  <circle cx="256" cy="360" r="34" fill="#e08a8a"/>
  <path d="M242 360l10 10 22-24" stroke="white" stroke-width="8" stroke-linecap="round" stroke-linejoin="round"/>
</svg>
